<svg xmlns="http://www.w3.org/2000/svg" width="134.271" height="15.295" viewBox="0 0 134.271 15.295"><g transform="translate(-83 -101.5)"><g transform="translate(-146 240.5)"><circle cx="7.5" cy="7.5" r="7.5" transform="translate(229 -139)" fill="#597ffb"/><circle cx="7.5" cy="7.5" r="7.5" transform="translate(237 -139)" fill="#ff9b9b" opacity="0.725"/><path d="M1.156,1.867H4.342V-3.6H9.1V1.867h3.186V-11.9H9.1v5.566H4.342V-11.9H1.156Zm17.11.256A3.1,3.1,0,0,0,21.216.51V1.867h2.989V-7.613H21.216v5.094c0,1.278-.551,2.1-1.829,2.1-1.141,0-1.573-.708-1.573-2.006V-7.613H14.765v5.861C14.765.706,15.985,2.122,18.266,2.122ZM32.8-7.868a3.558,3.558,0,0,0-3.107,1.613V-11.9H26.7V1.867h2.989V.529a3.446,3.446,0,0,0,3.029,1.593c2.616,0,4.445-2.026,4.445-5C37.165-5.862,35.4-7.868,32.8-7.868ZM31.855-.375a2.283,2.283,0,0,1-2.281-2.5,2.266,2.266,0,0,1,2.281-2.478A2.269,2.269,0,0,1,34.1-2.873,2.276,2.276,0,0,1,31.855-.375Zm7.119,2.242h3.009V-3.011c0-1.79.649-2.321,1.613-2.321.924,0,1.4.531,1.4,1.849V1.867h3.029V-3.011c0-1.79.649-2.321,1.593-2.321.924,0,1.416.551,1.416,1.868v5.33h3.029v-5.88c0-1.986-.649-3.855-3.363-3.855a3.312,3.312,0,0,0-3.029,1.75,2.866,2.866,0,0,0-2.97-1.75,2.851,2.851,0,0,0-2.714,1.632V-7.613H38.975Zm21.24.256A3.406,3.406,0,0,0,63.224.529V1.867h2.989V-7.613H63.224v1.357a3.246,3.246,0,0,0-2.97-1.613c-2.753,0-4.5,2.163-4.5,5C55.75-.021,57.383,2.122,60.215,2.122Zm.865-2.5a2.267,2.267,0,0,1-2.262-2.5A2.251,2.251,0,0,1,61.08-5.351a2.237,2.237,0,0,1,2.262,2.478A2.243,2.243,0,0,1,61.08-.375Zm7.631,2.242H71.72V-1.791c0-2.1.865-3.166,2.5-3.166a6.766,6.766,0,0,1,.9.059V-7.691a2.938,2.938,0,0,0-.787-.079A2.653,2.653,0,0,0,71.72-5.626V-7.613H68.711Zm17.72,0-3.835-5,3.776-4.484h-3.54L79.724-3.62V-11.9H76.734V1.867h2.989v-4.13l3.029,4.13ZM96.3-3.365c0-2.675-2.006-4.5-4.956-4.5-3.088,0-5.113,1.888-5.113,5,0,3.166,1.986,5,5.212,5,2.517,0,4.425-1.239,4.72-3.107h-2.95c-.256.59-.846.846-1.77.846a1.943,1.943,0,0,1-2.222-1.908h7A10.274,10.274,0,0,0,96.3-3.365Zm-7.08-.551a1.9,1.9,0,0,1,2.1-1.927,1.783,1.783,0,0,1,2.006,1.927ZM102.97-.474c-.747,0-1.318-.216-1.318-1.613V-5.233H103.8v-2.38h-2.144v-2.812H98.643v2.812H97.148v2.38h1.495v3.776c0,3.166,1.947,3.481,3.363,3.481a11.742,11.742,0,0,0,2.006-.157v-2.4A8.521,8.521,0,0,1,102.97-.474Z" transform="translate(259.26 -125.827)"/></g></g></svg>