<svg xmlns="http://www.w3.org/2000/svg" width="116.066" height="13.221" viewBox="0 0 116.066 13.221"><g transform="translate(-229 139)"><circle cx="6.5" cy="6.5" r="6.5" transform="translate(229 -139)" fill="#597ffb"/><circle cx="6.5" cy="6.5" r="6.5" transform="translate(236 -139)" fill="#ff9b9b" opacity="0.725"/><path d="M1.156,0H3.91V-4.726H8.024V0h2.754V-11.9H8.024v4.811H3.91V-11.9H1.156Zm14.79.221A2.681,2.681,0,0,0,18.5-1.173V0H21.08V-8.194H18.5v4.4c0,1.105-.476,1.819-1.581,1.819-.986,0-1.36-.612-1.36-1.734V-8.194H12.92v5.066C12.92-1,13.974.221,15.946.221ZM28.509-8.415a3.076,3.076,0,0,0-2.686,1.394V-11.9H23.239V0h2.584V-1.156A2.979,2.979,0,0,0,28.441.221C30.7.221,32.283-1.53,32.283-4.1,32.283-6.681,30.753-8.415,28.509-8.415Zm-.816,6.477A1.973,1.973,0,0,1,25.721-4.1a1.959,1.959,0,0,1,1.972-2.142A1.962,1.962,0,0,1,29.631-4.1,1.967,1.967,0,0,1,27.693-1.938ZM33.847,0h2.6V-4.216c0-1.547.561-2.006,1.394-2.006.8,0,1.207.459,1.207,1.6V0h2.618V-4.216c0-1.547.561-2.006,1.377-2.006.8,0,1.224.476,1.224,1.615V0h2.618V-5.083c0-1.717-.561-3.332-2.907-3.332A2.863,2.863,0,0,0,41.361-6.9a2.478,2.478,0,0,0-2.567-1.513A2.464,2.464,0,0,0,36.448-7v-1.19h-2.6Zm18.36.221a2.945,2.945,0,0,0,2.6-1.377V0h2.584V-8.194H54.808v1.173a2.806,2.806,0,0,0-2.567-1.394c-2.38,0-3.893,1.87-3.893,4.318C48.348-1.632,49.759.221,52.207.221Zm.748-2.159A1.96,1.96,0,0,1,51-4.1a1.945,1.945,0,0,1,1.955-2.142A1.934,1.934,0,0,1,54.91-4.1,1.939,1.939,0,0,1,52.955-1.938ZM59.551,0h2.6V-3.162c0-1.819.748-2.737,2.159-2.737a5.849,5.849,0,0,1,.782.051V-8.262a2.539,2.539,0,0,0-.68-.068,2.293,2.293,0,0,0-2.261,1.853V-8.194h-2.6ZM74.868,0,71.553-4.318l3.264-3.876h-3.06L69.071-4.743V-11.9H66.487V0h2.584V-3.57L71.689,0ZM83.4-4.522c0-2.312-1.734-3.893-4.284-3.893A4.071,4.071,0,0,0,74.7-4.1C74.7-1.36,76.415.221,79.2.221c2.176,0,3.825-1.071,4.08-2.686h-2.55c-.221.51-.731.731-1.53.731a1.68,1.68,0,0,1-1.921-1.649h6.052A8.881,8.881,0,0,0,83.4-4.522ZM77.282-5A1.642,1.642,0,0,1,79.1-6.664,1.541,1.541,0,0,1,80.835-5ZM89.165-2.023c-.646,0-1.139-.187-1.139-1.394v-2.72h1.853V-8.194H88.026v-2.431h-2.6v2.431H84.133v2.057h1.292v3.264c0,2.737,1.683,3.009,2.907,3.009A10.15,10.15,0,0,0,90.066,0V-2.074A7.366,7.366,0,0,1,89.165-2.023Z" transform="translate(255 -126)" fill="#fff"/></g></svg>